<svg xmlns="http://www.w3.org/2000/svg" xmlns:xlink="http://www.w3.org/1999/xlink" id="Layer_1" data-name="Layer 1" viewBox="0 0 260 65"><defs><style> .cls-1 { fill: url(#linear-gradient-3); } .cls-2 { fill: url(#linear-gradient-2); } .cls-3 { fill: #231f20; } .cls-4 { fill: url(#linear-gradient); } </style><linearGradient id="linear-gradient" x1="2.47" y1="32.5" x2="59.19" y2="32.5" gradientUnits="userSpaceOnUse"><stop offset=".2" stop-color="#0aa5dc"></stop><stop offset=".7" stop-color="#272361"></stop></linearGradient><linearGradient id="linear-gradient-2" x1="2.47" y1="42.27" x2="47.34" y2="42.27" gradientUnits="userSpaceOnUse"><stop offset=".08" stop-color="#272361"></stop><stop offset=".87" stop-color="#0aa5dc"></stop></linearGradient><linearGradient id="linear-gradient-3" x1="22.02" y1="9.86" y2="9.86" xlink:href="#linear-gradient"></linearGradient></defs><g><path class="cls-4" d="M36.56,48.16c-1.13,1.13-2.96,1.13-4.09,0l-13.62-13.62c-1.13-1.13-1.13-2.96,0-4.09l13.62-13.62c1.13-1.13,2.96-1.13,4.09,0l2.44,2.44h20.19l-14.69-14.69c-5.52-5.51-14.46-5.51-19.97,0L6.61,22.51c-5.51,5.52-5.51,14.46,0,19.97l17.92,17.92c5.52,5.51,14.46,5.51,19.97,0l14.66-14.66h-20.19l-2.41,2.41Z"></path><path class="cls-2" d="M39.38,55.08L11.7,27.4c-2.03-2.03-2.88-4.77-2.57-7.41l-2.52,2.52c-5.51,5.52-5.51,14.46,0,19.97l17.92,17.92c5.52,5.51,14.46,5.51,19.97,0l2.84-2.84c-2.8.51-5.8-.33-7.97-2.49Z"></path><path class="cls-1" d="M44.5,4.59c-5.52-5.51-14.46-5.51-19.97,0l-2.51,2.51c2.64-.31,5.38.55,7.41,2.57l9.61,9.61h20.15l-14.69-14.69Z"></path></g><g><path class="cls-3" d="M134.99,49.99c-.37-.34-1.17-.78-2.32-.78-.81,0-1.63.29-1.63,1.08s1.04.84,2.05.9c1.09.08,2.86.18,2.86,1.86,0,1.46-1.3,2.04-2.8,2.04-1.59,0-2.61-.66-3.29-1.29l.51-.58c.53.49,1.4,1.15,2.8,1.15,1.07,0,1.95-.38,1.95-1.23,0-.94-.96-1.08-2.03-1.16-1.35-.09-2.89-.18-2.89-1.63s1.37-1.86,2.5-1.86c1.3,0,2.31.52,2.79.91l-.5.58Z"></path><path class="cls-3" d="M142.95,52h-2.53v2.19h4.42v.74h-5.26v-6.27h5.04v.74h-4.2v1.86h2.53v.74Z"></path><path class="cls-3" d="M148.4,54.93v-6.27h3.46c.81,0,1.36.22,1.76.63.31.33.48.75.48,1.23,0,.84-.58,1.51-1.46,1.75l1.55,2.66h-.95l-1.44-2.55h-2.55v2.55h-.83ZM149.23,49.4v2.24h2.83c.69,0,1.2-.51,1.2-1.12,0-.28-.12-.54-.3-.73-.31-.31-.68-.38-1.11-.38h-2.62Z"></path><path class="cls-3" d="M163.66,48.66l-2.92,6.27h-.78l-2.92-6.27h.94l2.36,5.22h.06l2.35-5.22h.9Z"></path><path class="cls-3" d="M167.06,54.93v-6.27h.83v6.27h-.83Z"></path><path class="cls-3" d="M178.04,53.85c-.68.67-1.72,1.25-3,1.25-2.03,0-3.45-1.48-3.45-3.3s1.42-3.29,3.41-3.29c1.12,0,2.18.43,2.87,1.08l-.57.56c-.58-.55-1.46-.89-2.28-.89-1.5,0-2.55,1.16-2.55,2.56s1.07,2.55,2.58,2.55c1,0,1.86-.46,2.44-1.06l.56.55Z"></path><path class="cls-3" d="M184.94,52h-2.53v2.19h4.42v.74h-5.26v-6.27h5.04v.74h-4.2v1.86h2.53v.74Z"></path><path class="cls-3" d="M194.85,49.99c-.37-.34-1.17-.78-2.32-.78-.81,0-1.63.29-1.63,1.08s1.04.84,2.05.9c1.09.08,2.86.18,2.86,1.86,0,1.46-1.3,2.04-2.8,2.04-1.59,0-2.61-.66-3.29-1.29l.51-.58c.53.49,1.4,1.15,2.8,1.15,1.07,0,1.95-.38,1.95-1.23,0-.94-.96-1.08-2.03-1.16-1.35-.09-2.89-.18-2.89-1.63s1.37-1.86,2.5-1.86c1.3,0,2.31.52,2.79.91l-.5.58Z"></path></g><g><path class="cls-3" d="M97.19,33.55c-2.77,2.77-7.11,5.37-12.73,5.37-8.5,0-14.11-6.13-14.11-13.71s5.65-13.67,13.91-13.67c4.7,0,9.21,1.86,12.09,4.54l-3,2.96c-2.29-2.17-5.85-3.56-9.01-3.56-5.65,0-9.33,4.43-9.33,9.76s3.75,9.72,9.52,9.72c4.03,0,7.47-1.98,9.68-4.35l2.96,2.92Z"></path><path class="cls-3" d="M111.57,12.33h4.03l11.97,25.81h-4.86l-3.12-6.96h-12.29l-3.08,6.96h-4.62l11.97-25.81ZM108.89,27.62h9.13l-4.43-10h-.24l-4.47,10Z"></path><path class="cls-3" d="M132.99,38.14V12.33h14.23c3.64,0,5.89,1.03,7.47,2.73,1.38,1.5,2.06,3.28,2.06,5.18,0,2.21-.91,4.15-2.37,5.57-1.54,1.46-3.72,2.41-7.15,2.41h-9.8v9.92h-4.43ZM137.42,16.28v7.98h9.8c1.11,0,2.65-.08,3.91-1.26.75-.71,1.19-1.7,1.19-2.73s-.39-1.9-1.07-2.61c-1.19-1.26-2.77-1.38-4.03-1.38h-9.8Z"></path><path class="cls-3" d="M167.06,12.33v21.85h15.85v3.95h-20.27V12.33h4.43Z"></path><path class="cls-3" d="M188.21,38.14V12.33h4.43v25.81h-4.43Z"></path><path class="cls-3" d="M224.84,12.33v25.81h-3.91l-14.9-17.9h-.04v17.9h-4.43V12.33h3.91l14.9,17.9h.04V12.33h4.43Z"></path><path class="cls-3" d="M248.12,26.64h-9.92v7.55h17.47v3.95h-21.89V12.33h20.95v3.95h-16.52v6.4h9.92v3.95Z"></path></g></svg>