<svg xmlns="http://www.w3.org/2000/svg" viewBox="0 0 192 192" role="img" aria-label="Pixel coder avatar">
  <rect width="192" height="192" fill="#2f2b56"/>
  <rect x="10" y="18" width="32" height="6" fill="#f4c414"/>
  <rect x="14" y="14" width="24" height="4" fill="#f0b90b"/>
  <rect x="130" y="16" width="50" height="48" fill="#1a7e95"/>
  <rect x="134" y="20" width="42" height="40" fill="#0e637a"/>
  <rect x="136" y="50" width="22" height="2" fill="#38d7b9"/>
  <rect x="144" y="42" width="18" height="2" fill="#2ab9a0"/>
  <rect x="54" y="100" width="92" height="34" fill="#4e3452"/>
  <rect x="46" y="96" width="108" height="6" fill="#2f1d36"/>
  <rect x="118" y="96" width="30" height="18" fill="#3f3a73"/>
  <rect x="121" y="99" width="24" height="12" fill="#30bfd2"/>
  <rect x="124" y="103" width="10" height="2" fill="#31f0d8"/>
  <rect x="136" y="103" width="8" height="2" fill="#e34acc"/>
  <rect x="124" y="107" width="16" height="2" fill="#31f0d8"/>
  <rect x="22" y="96" width="36" height="44" fill="#36447b"/>
  <rect x="24" y="100" width="32" height="36" fill="#4b558b"/>
  <rect x="68" y="84" width="34" height="18" fill="#2f3d70"/>
  <rect x="66" y="80" width="38" height="6" fill="#394b85"/>
  <rect x="70" y="66" width="26" height="16" fill="#394175"/>
  <rect x="72" y="64" width="22" height="4" fill="#20284d"/>
  <rect x="90" y="82" width="10" height="8" fill="#ffd4a2"/>
  <rect x="94" y="78" width="8" height="6" fill="#ffd4a2"/>
  <rect x="96" y="86" width="6" height="4" fill="#ffbf8e"/>
  <rect x="66" y="102" width="28" height="22" fill="#25356b"/>
  <rect x="70" y="124" width="10" height="18" fill="#ff9fa1"/>
  <rect x="80" y="124" width="10" height="18" fill="#ffa9aa"/>
  <rect x="70" y="142" width="10" height="4" fill="#f4d2bd"/>
  <rect x="80" y="142" width="10" height="4" fill="#f4d2bd"/>
  <rect x="90" y="36" width="18" height="12" fill="#53467f"/>
  <rect x="88" y="40" width="22" height="10" fill="#66538f"/>
  <rect x="98" y="44" width="10" height="8" fill="#ffd4a2"/>
  <rect x="100" y="46" width="6" height="2" fill="#111827"/>
  <rect x="100" y="49" width="6" height="1" fill="#111827"/>
  <rect x="104" y="46" width="1" height="1" fill="#fff"/>
  <rect x="96" y="50" width="8" height="1" fill="#b45f56"/>
  <rect x="52" y="150" width="104" height="26" fill="#3e3768"/>
  <rect x="58" y="154" width="92" height="18" fill="#4c477a"/>
  <rect x="74" y="12" width="28" height="24" fill="#1f6f85"/>
  <rect x="76" y="14" width="24" height="20" fill="#0d5c74"/>
  <rect x="12" y="162" width="26" height="10" fill="#433e72"/>
  <rect x="14" y="164" width="22" height="6" fill="#5c558f"/>
</svg>
