<svg xmlns="http://www.w3.org/2000/svg" viewBox="0 0 96 96" role="img" aria-label="Power Platform icon">
  <defs>
    <linearGradient id="pp-g1" x1="0%" y1="0%" x2="100%" y2="100%">
      <stop offset="0%" stop-color="#a855f7"/>
      <stop offset="100%" stop-color="#7c3aed"/>
    </linearGradient>
    <linearGradient id="pp-g2" x1="0%" y1="0%" x2="100%" y2="100%">
      <stop offset="0%" stop-color="#ec4899"/>
      <stop offset="100%" stop-color="#be185d"/>
    </linearGradient>
    <linearGradient id="pp-g3" x1="0%" y1="0%" x2="100%" y2="100%">
      <stop offset="0%" stop-color="#6366f1"/>
      <stop offset="100%" stop-color="#4338ca"/>
    </linearGradient>
  </defs>
  <rect x="4" y="4" width="88" height="88" rx="20" fill="#f5f3ff"/>
  <path d="M18 56c0-8 6-14 14-14h10v28H32c-8 0-14-6-14-14Z" fill="url(#pp-g1)"/>
  <path d="M42 26h12c10 0 18 8 18 18v6H42V26Z" fill="url(#pp-g2)"/>
  <path d="M42 50h30v8c0 10-8 18-18 18H42V50Z" fill="url(#pp-g3)"/>
  <circle cx="70" cy="32" r="6" fill="#fdf2f8"/>
</svg>
